<svg width="141" height="150" viewBox="0 0 141 150" fill="none" xmlns="http://www.w3.org/2000/svg">
<g clip-path="url(#clip0_134_3014)">
<path d="M89.9083 18.0981C79.0088 18.0981 70.1392 26.9693 70.1392 37.8708C70.1392 48.7723 79.0088 57.6435 89.9083 57.6435C91.3176 57.6435 92.6881 57.4883 94.0199 57.2038C88.3826 64.1611 79.7716 68.6226 70.1392 68.6226C65.9113 68.6226 61.8643 67.7562 58.1924 66.2044C58.9423 69.8511 60.2094 73.3168 61.8902 76.5369C64.5537 77.1059 67.3076 77.4033 70.1392 77.4033C91.9382 77.4033 109.677 59.6609 109.677 37.8579C109.677 28.366 102.954 20.4259 94.0199 18.5249C92.6881 18.2404 91.3176 18.0852 89.9083 18.0852V18.0981ZM100.885 37.8708C100.885 43.9229 95.9593 48.8499 89.9083 48.8499C83.8573 48.8499 78.9312 43.9229 78.9312 37.8708C78.9312 31.8188 83.8573 26.8917 89.9083 26.8917C95.9593 26.8917 100.885 31.8188 100.885 37.8708Z" fill="#4B1E4A"/>
<path d="M50.6934 72.2695C49.491 68.2994 48.7798 64.1224 48.6247 59.7903C42.9357 54.2038 39.3931 46.4447 39.3931 37.858C39.3931 33.5388 40.2981 29.4265 41.9143 25.6892C42.0824 27.0212 42.3151 28.3402 42.6125 29.6204C43.4917 33.4612 44.9398 37.0821 46.8534 40.3926C48.3015 37.0821 50.0987 33.9655 52.2062 31.0817C54.3266 28.1592 56.7832 25.4952 59.4725 23.1158C57.4426 27.616 56.3048 32.6077 56.3048 37.8709C56.3048 47.1689 59.8475 55.6392 65.6398 62.0404C67.1009 62.312 68.6007 62.4672 70.1393 62.4672C72.9579 62.4672 75.6472 61.9628 78.1685 61.0964C70.3332 56.3116 65.0839 47.6991 65.0839 37.8709C65.0839 25.0943 73.9405 14.3739 85.8227 11.4513C87.3484 11.0763 88.9128 10.8176 90.5161 10.7012C91.1108 10.6754 91.7185 10.6366 92.3133 10.6366C94.8862 10.6366 97.3558 11.0245 99.7089 11.6841C99.5408 11.503 99.3728 11.309 99.2047 11.128C95.8172 7.45537 91.7444 4.40347 87.1932 2.218C87.1156 2.1792 87.0251 2.1404 86.9476 2.10161C80.1984 2.72234 73.7983 4.49399 67.9025 7.20966C61.3214 10.2486 55.3868 14.4644 50.396 19.6112C50.4736 17.581 50.7451 15.5895 51.1977 13.6756C52.413 8.54164 54.9343 3.91206 58.3606 0.123047C52.7492 1.86884 47.6679 4.85608 43.4271 8.73561C35.5272 15.9645 30.5752 26.3616 30.5752 37.8839C30.5752 52.6131 38.682 65.4932 50.6546 72.2953L50.6934 72.2695Z" fill="#76356E"/>
<path d="M17.6849 146.576L14.4525 134.019H14.1164L9.41006 144.209L4.69081 134.019H4.38051L1.26451 146.407C0.967133 147.533 0.863697 148.166 0.139648 148.412V148.658C0.747332 148.632 1.41966 148.619 2.04028 148.619C2.71261 148.619 3.42373 148.645 4.08313 148.658V148.412C3.68232 148.308 3.47544 148.063 3.47544 147.726C3.47544 147.494 3.55302 147.145 3.60474 146.912L5.03991 140.2L9.17733 149.097H9.52642L13.5992 140.2L15.0214 146.925C15.0602 147.119 15.099 147.429 15.099 147.61C15.099 148.024 14.8663 148.257 14.4913 148.399V148.645C15.099 148.619 15.7843 148.606 16.4695 148.606C17.2194 148.606 18.0211 148.632 18.7839 148.645V148.399C18.1374 148.089 17.9435 147.688 17.659 146.563L17.6849 146.576Z" fill="#545251"/>
<path d="M24.8864 138.454C21.7704 138.454 19.7275 140.523 19.7275 143.847C19.7275 146.834 21.7704 149.033 25.1579 149.033C26.4896 149.033 27.6274 148.8 28.6876 148.321L28.985 145.903L28.7135 145.838C27.7697 146.718 26.5026 147.093 25.326 147.093C23.5676 147.093 22.4169 146.11 22.2359 144.248H29.7608C29.7866 144.08 29.7996 143.808 29.7996 143.666C29.7996 140.317 27.9765 138.467 24.8864 138.467V138.454ZM22.3005 142.489C22.6367 141.028 23.5934 140.291 24.8347 140.291C26.1276 140.291 27.0068 141.028 27.3042 142.489H22.3134H22.3005Z" fill="#545251"/>
<path d="M47.2284 144.39V142.955C47.2284 141.933 47.2542 141.092 47.0861 140.51C46.7112 139.23 45.5217 138.416 43.9572 138.416C42.4962 138.416 41.4489 139.023 40.8024 140.174C40.2594 139.023 39.2768 138.416 37.9192 138.416C36.4194 138.416 35.3462 139.036 34.661 140.252C34.5963 139.851 34.5317 139.347 34.3894 138.765H31.2734V139.01C32.2819 139.243 32.3337 140.291 32.3337 143.045V144.377C32.3337 147.222 32.269 148.179 31.2734 148.412V148.658C32.0104 148.632 32.7991 148.619 33.5749 148.619C34.3506 148.619 35.1652 148.645 35.8763 148.658V148.412C34.829 148.14 34.7902 147.222 34.7902 144.377V143.252C34.7902 141.312 35.7341 140.536 36.8977 140.536C38.4234 140.536 38.5656 141.661 38.5656 143.174V144.39C38.5656 147.144 38.5398 148.166 37.5184 148.425V148.67C38.2683 148.645 39.0828 148.632 39.8586 148.632C40.6344 148.632 41.3584 148.657 42.0566 148.67V148.425C41.074 148.179 41.0093 147.235 41.0093 144.39V143.407C41.0093 141.506 41.6946 140.549 43.1556 140.549C44.6166 140.549 44.7847 141.778 44.7847 143.097V144.39C44.7847 147.183 44.7459 148.166 43.7374 148.425V148.67C44.4744 148.645 45.2631 148.632 46.0389 148.632C46.8146 148.632 47.5904 148.657 48.2886 148.67V148.425C47.2672 148.179 47.2284 147.17 47.2284 144.39Z" fill="#545251"/>
<path d="M57.1978 138.428C55.9436 138.428 55.1678 138.765 54.4826 139.049L53.4741 139.631V134.73H49.9443V135.002C50.9528 135.234 51.0304 136.152 51.0304 139.01V144.377C51.0304 147.235 50.927 148.179 49.9443 148.386V148.658C50.6167 148.632 51.3407 148.619 52.013 148.619C52.4139 148.619 52.8922 148.645 53.2931 148.658C53.3577 148.347 53.4353 147.946 53.487 147.507C54.1723 148.347 55.0903 149.007 56.8099 149.007C59.9259 149.007 61.7618 146.795 61.7618 143.485C61.7618 140.666 60.0939 138.403 57.2107 138.403L57.1978 138.428ZM56.4866 146.989C54.6507 146.989 53.4741 145.709 53.4741 143.226V141.946C53.9007 141.493 54.9997 140.459 56.5254 140.446C58.1933 140.446 59.2665 141.804 59.2665 143.537C59.2665 145.903 57.9865 146.989 56.4866 146.989Z" fill="#545251"/>
<path d="M135.588 138.428C134.334 138.428 133.558 138.765 132.873 139.049L131.865 139.631V134.73H128.335V135.002C129.343 135.234 129.421 136.152 129.421 139.01V144.377C129.421 147.235 129.318 148.179 128.335 148.386V148.658C129.007 148.632 129.731 148.619 130.404 148.619C130.804 148.619 131.283 148.645 131.684 148.658C131.748 148.347 131.826 147.946 131.878 147.507C132.563 148.347 133.481 149.007 135.2 149.007C138.316 149.007 140.152 146.795 140.152 143.485C140.152 140.666 138.485 138.403 135.601 138.403L135.588 138.428ZM134.877 146.989C133.041 146.989 131.865 145.709 131.865 143.226V141.946C132.291 141.493 133.39 140.459 134.916 140.446C136.584 140.446 137.657 141.804 137.657 143.537C137.657 145.903 136.377 146.989 134.877 146.989Z" fill="#545251"/>
<path d="M68.86 138.454C65.744 138.454 63.7012 140.523 63.7012 143.847C63.7012 146.834 65.744 149.033 69.1315 149.033C70.4633 149.033 71.6011 148.8 72.6613 148.321L72.9587 145.903L72.6871 145.838C71.7433 146.718 70.4762 147.093 69.2996 147.093C67.5412 147.093 66.3905 146.11 66.2095 144.248H73.7344C73.7603 144.08 73.7732 143.808 73.7732 143.666C73.7732 140.317 71.9502 138.467 68.86 138.467V138.454ZM66.2741 142.489C66.6103 141.028 67.5671 140.291 68.8083 140.291C70.1012 140.291 70.9804 141.028 71.2778 142.489H66.2871H66.2741Z" fill="#545251"/>
<path d="M78.5563 140.161C78.5175 139.812 78.4787 139.321 78.3494 138.765H75.2334V139.01C76.2548 139.243 76.3195 140.291 76.3195 143.045V144.377C76.3195 147.17 76.2548 148.153 75.2334 148.412V148.658C76.048 148.632 76.8625 148.632 77.5478 148.632C78.2847 148.632 79.0993 148.632 79.8492 148.658V148.412C78.8407 148.166 78.7631 147.196 78.7631 144.377V143.808C78.7631 141.7 79.6035 140.679 80.9094 140.679C81.5947 140.679 81.9308 140.976 82.1636 141.455H82.461V138.674C82.0214 138.48 81.543 138.428 81.1292 138.428C79.6941 138.428 79.0605 139.282 78.5563 140.161Z" fill="#545251"/>
<path d="M86.34 141.299C86.34 140.73 86.8054 140.278 87.7881 140.278C88.6285 140.278 89.2491 140.614 89.7663 141.286H90.0378V138.803H89.7663C89.7663 138.803 89.5982 138.881 89.4947 138.881C89.1586 138.881 88.706 138.441 87.1545 138.441C85.2927 138.441 83.9609 139.657 83.9609 141.39C83.9609 143.291 85.1763 143.692 87.4907 144.856C87.8656 145.05 88.1113 145.437 88.1113 145.903C88.1113 146.718 87.2967 147.196 86.4046 147.196C85.5125 147.196 84.8143 146.847 84.2712 146.11H84.0256L84.1678 148.528C84.8531 148.761 85.6676 149.033 86.6373 149.033C89.1586 149.033 90.5032 147.61 90.5032 145.903C90.5032 142.541 86.34 142.916 86.34 141.312V141.299Z" fill="#545251"/>
<path d="M104.455 146.899C101.468 146.899 99.6707 144.597 99.6707 141.739C99.6707 138.622 101.636 136.515 104.351 136.515C105.903 136.515 107.041 136.915 108.023 137.769H108.295V134.743H107.997C107.92 134.821 107.765 134.911 107.558 134.911C106.937 134.911 105.618 134.394 104.235 134.394C102.851 134.394 101.584 134.536 100.265 135.351C98.1968 136.631 96.9297 138.972 96.9297 141.804C96.9297 145.606 99.5673 149.033 104.351 149.033C105.644 149.033 106.898 148.787 108.114 148.347L108.424 145.554L108.152 145.489C107.17 146.446 105.773 146.912 104.455 146.912V146.899Z" fill="#545251"/>
<path d="M113.557 144.39V134.743H110.053V135.014C111.074 135.26 111.113 136.243 111.113 139.023V144.39C111.113 147.144 111.074 148.166 110.053 148.425V148.67C110.764 148.645 111.578 148.632 112.393 148.632C113.143 148.632 113.919 148.658 114.63 148.67V148.425C113.647 148.153 113.57 147.196 113.57 144.39H113.557Z" fill="#545251"/>
<path d="M125.646 144.39V138.765H122.181V139.01C122.931 139.178 123.202 139.799 123.202 141.7V143.64C123.202 144.868 123.073 145.748 122.453 146.356C122.078 146.705 121.548 146.899 121.121 146.899C119.867 146.899 119.246 146.162 119.246 144.726V138.752H115.742V138.997C116.764 139.23 116.802 140.291 116.802 143.006V145.373C116.802 147.843 118.082 149.032 120.099 149.032C121.625 149.032 122.647 148.463 123.254 147.403C123.28 147.675 123.293 148.076 123.448 148.657C123.823 148.632 124.301 148.619 124.676 148.619C125.362 148.619 126.073 148.645 126.719 148.657V148.412C125.737 148.166 125.659 147.248 125.659 144.377L125.646 144.39Z" fill="#545251"/>
<path d="M18.2023 127.656V126.919C15.2544 126.492 15.0734 123.479 15.0734 118.009V101.301L41.6046 129.247H42.5226V96.3225C42.5226 91.0981 42.7036 87.9686 45.4705 87.4772V86.6754C43.1432 86.6754 40.803 86.7918 38.9023 86.7918C37.0017 86.7918 34.6097 86.6754 32.1532 86.6754V87.4772C35.1011 87.7229 35.3467 90.7877 35.3467 96.3225V112.966L8.75086 84.8391H7.89752V118.009C7.89752 123.415 7.65186 126.298 4.82031 126.919V127.656C6.90195 127.592 9.17753 127.54 11.3885 127.54C13.7158 127.54 16.056 127.605 18.2023 127.656Z" fill="#545251"/>
<path d="M60.223 115.061V98.5339H49.9053V99.271C52.9178 99.8788 53.0342 103.073 53.0342 111.065V115.061C53.0342 123.169 52.9049 126.182 49.9053 126.919V127.656C52.0516 127.592 54.4435 127.54 56.7837 127.54C59.124 127.54 61.322 127.605 63.4165 127.656V126.919C60.5333 126.182 60.223 123.415 60.223 115.061Z" fill="#545251"/>
<path d="M101.545 126.919C98.6622 126.182 98.4682 123.363 98.4682 115.061V111.983C98.4682 108.427 98.5329 105.53 97.9123 103.564C96.684 99.6977 93.2447 97.4863 88.2152 97.4863C83.664 97.4863 80.4187 99.2709 78.3241 102.711C78.1431 101.663 77.9621 100.254 77.5872 98.5338H68.1357V99.2709C71.1483 99.9434 71.2647 103.202 71.2647 111.129V115.061C71.2647 123.169 71.1483 126.182 68.1357 126.919V127.656C70.2174 127.592 72.5576 127.54 74.8849 127.54C77.0312 127.54 79.4231 127.604 81.6341 127.656V126.919C78.5052 126.247 78.4405 123.117 78.4405 115.061V113.767C78.4405 106.952 81.2074 103.758 85.681 103.758C90.7106 103.758 91.2665 107.444 91.2665 111.685V115.061C91.2665 123.596 91.0855 126.182 88.2022 126.919V127.656C90.2839 127.592 92.6241 127.54 94.9514 127.54C97.2787 127.54 99.4896 127.604 101.52 127.656V126.919H101.545Z" fill="#545251"/>
<path d="M121.818 128.691C125.749 128.691 129.059 128.018 132.201 126.609L133.054 119.483L132.252 119.302C129.485 121.876 125.749 122.988 122.31 122.988C117.151 122.988 113.776 120.104 113.22 114.634H135.329C135.394 114.143 135.459 113.341 135.459 112.914C135.459 103.086 130.119 97.6157 121.03 97.6157C111.94 97.6157 105.863 103.694 105.863 113.457C105.863 122.238 111.875 128.691 121.831 128.691H121.818ZM120.836 103.021C124.637 103.021 127.223 105.168 128.076 109.474H113.401C114.384 105.168 117.215 103.021 120.836 103.021Z" fill="#545251"/>
<path d="M55.5944 88.3178C55.1806 87.1539 54.1721 86.4944 52.918 86.4944C51.5086 86.4944 50.3838 87.5419 50.3838 88.848C50.3838 90.3998 51.3276 91.5507 52.3103 92.5982C53.2412 93.6069 55.103 95.3656 55.5814 95.7923H55.6073C56.0857 95.3656 57.9604 93.6069 58.8914 92.5982C59.8611 91.5507 60.8178 90.3998 60.8178 88.848C60.8178 87.5419 59.693 86.4944 58.2837 86.4944C57.0942 86.4944 56.034 87.0892 55.6073 88.3178H55.5944Z" fill="#692F6E"/>
</g>
<defs>
<clipPath id="clip0_134_3014">
<rect width="140" height="149" fill="white" transform="translate(0.139648 0.110107)"/>
</clipPath>
</defs>
</svg>