<svg width="231" height="29" viewBox="0 0 231 29" fill="none" xmlns="http://www.w3.org/2000/svg">
<g clip-path="url(#clip0_142_5396)">
<path d="M45.5551 7.62353V7.905C46.5871 7.991 46.6731 9.06212 46.6731 10.9933V16.8102L37.377 6.98242H37.0799V18.5693C37.0799 20.4614 36.9939 21.47 36.0088 21.6811V21.9391C36.7359 21.9156 37.5334 21.9 38.3074 21.9C39.1205 21.9 39.9415 21.9234 40.692 21.9391V21.6811C39.66 21.5325 39.5974 20.477 39.5974 18.5693V12.729L48.8701 22.4942H49.1907V10.9933C49.1907 9.17158 49.2532 8.077 50.2227 7.905V7.62353C49.4096 7.62353 48.5886 7.66262 47.9241 7.66262C47.2595 7.66262 46.4229 7.62353 45.5629 7.62353H45.5551Z" fill="#545251"/>
<path d="M55.367 17.5366V11.7666H51.7627V12.0246C52.8104 12.2357 52.8573 13.3537 52.8573 16.1449V17.5366C52.8573 20.3669 52.8104 21.4224 51.7627 21.6804V21.9384C52.5133 21.9149 53.3498 21.8993 54.163 21.8993C54.9761 21.8993 55.7501 21.9227 56.4772 21.9384V21.6804C55.4686 21.4224 55.3592 20.4607 55.3592 17.5366H55.367Z" fill="#545251"/>
<path d="M68.7366 17.5369V16.4658C68.7366 15.2226 68.76 14.214 68.5411 13.526C68.1111 12.1734 66.907 11.3994 65.1479 11.3994C63.5608 11.3994 62.4193 12.0249 61.6922 13.2211C61.6296 12.8536 61.5671 12.3611 61.4342 11.7591H58.127V12.0171C59.1824 12.2516 59.2215 13.3931 59.2215 16.1608V17.5369C59.2215 20.3671 59.1824 21.4226 58.127 21.6806V21.9387C58.8541 21.9152 59.675 21.8996 60.4881 21.8996C61.2387 21.8996 62.0753 21.923 62.8493 21.9387V21.6806C61.7547 21.4461 61.7312 20.3515 61.7312 17.5369V17.0834C61.7312 14.6988 62.7007 13.5886 64.2644 13.5886C66.0236 13.5886 66.219 14.8786 66.219 16.3563V17.5369C66.219 20.5235 66.1565 21.4226 65.1479 21.6806V21.9387C65.875 21.9152 66.6959 21.8996 67.5091 21.8996C68.3222 21.8996 69.0962 21.923 69.8077 21.9387V21.6806C68.7991 21.4226 68.7366 20.4375 68.7366 17.5369Z" fill="#545251"/>
<path d="M76.6173 11.4463C73.4196 11.4463 71.3164 13.5729 71.3164 16.9817C71.3164 20.0544 73.4196 22.3061 76.8988 22.3061C78.2748 22.3061 79.4319 22.0715 80.5265 21.579L80.8236 19.0927L80.5422 19.0302C79.5805 19.9293 78.267 20.3202 77.0629 20.3202C75.2569 20.3202 74.0763 19.3116 73.8887 17.4039H81.6133C81.6367 17.2319 81.6602 16.9505 81.6602 16.8019C81.6602 13.3696 79.7916 11.4541 76.6173 11.4541V11.4463ZM73.959 15.5901C74.303 14.0889 75.2882 13.3383 76.5548 13.3383C77.8839 13.3383 78.783 14.0889 79.0879 15.5901H73.959Z" fill="#545251"/>
<path d="M105.186 19.7969L101.855 6.89648H101.511L96.6791 17.3732L91.8317 6.89648H91.5111L88.3134 19.6249C88.0163 20.782 87.9068 21.4309 87.1562 21.6811V21.9391C87.7817 21.9157 88.4619 21.9 89.1109 21.9C89.7989 21.9 90.526 21.9235 91.214 21.9391V21.6811C90.8075 21.5717 90.5885 21.3137 90.5885 20.9697C90.5885 20.7351 90.6745 20.3676 90.7215 20.1331L92.1991 13.245L96.4524 22.3848H96.8198L101.003 13.245L102.465 20.1565C102.504 20.352 102.551 20.6726 102.551 20.868C102.551 21.298 102.316 21.5326 101.925 21.6811V21.9391C102.551 21.9157 103.254 21.9 103.966 21.9C104.74 21.9 105.553 21.9235 106.35 21.9391V21.6811C105.686 21.3606 105.49 20.954 105.193 19.7891L105.186 19.7969Z" fill="#545251"/>
<path d="M112.582 11.4463C109.384 11.4463 107.281 13.5729 107.281 16.9817C107.281 20.0544 109.384 22.3061 112.864 22.3061C114.24 22.3061 115.397 22.0715 116.491 21.579L116.788 19.0927L116.507 19.0302C115.545 19.9293 114.232 20.3202 113.028 20.3202C111.222 20.3202 110.041 19.3116 109.854 17.4039H117.578C117.602 17.2319 117.625 16.9505 117.625 16.8019C117.625 13.3696 115.756 11.4541 112.582 11.4541V11.4463ZM109.924 15.5901C110.268 14.0889 111.253 13.3383 112.52 13.3383C113.849 13.3383 114.748 14.0889 115.053 15.5901H109.924Z" fill="#545251"/>
<path d="M135.545 17.5369V16.0592C135.545 15.0037 135.568 14.1515 135.396 13.5495C135.013 12.2438 133.786 11.4072 132.175 11.4072C130.674 11.4072 129.603 12.0327 128.938 13.2133C128.383 12.0327 127.374 11.4072 125.975 11.4072C124.427 11.4072 123.332 12.0483 122.629 13.2993C122.566 12.8927 122.504 12.3767 122.347 11.7747H119.149V12.0327C120.181 12.2673 120.244 13.3384 120.244 16.1765V17.5525C120.244 20.4688 120.181 21.4617 119.149 21.6963V21.9543C119.9 21.9308 120.713 21.9152 121.511 21.9152C122.308 21.9152 123.145 21.9386 123.872 21.9543V21.6963C122.801 21.4148 122.754 20.4766 122.754 17.5525V16.3954C122.754 14.4017 123.723 13.6042 124.919 13.6042C126.483 13.6042 126.639 14.7613 126.639 16.3094V17.5525C126.639 20.3828 126.616 21.4383 125.568 21.6963V21.9543C126.342 21.9308 127.179 21.9152 127.969 21.9152C128.758 21.9152 129.517 21.9386 130.22 21.9543V21.6963C129.212 21.4383 129.149 20.4766 129.149 17.5525V16.5439C129.149 14.5893 129.861 13.6042 131.362 13.6042C132.863 13.6042 133.035 14.8708 133.035 16.2234V17.5525C133.035 20.4297 132.988 21.4383 131.964 21.6963V21.9543C132.714 21.9308 133.528 21.9152 134.325 21.9152C135.122 21.9152 135.912 21.9386 136.639 21.9543V21.6963C135.592 21.4383 135.545 20.4062 135.545 17.5525V17.5369Z" fill="#545251"/>
<path d="M145.779 11.4228C144.489 11.4228 143.699 11.7668 142.988 12.0639L141.956 12.6581V7.62305H138.328V7.90451C139.36 8.13906 139.446 9.08509 139.446 12.0248V17.5368C139.446 20.4765 139.337 21.446 138.328 21.6571V21.9386C139.016 21.9151 139.767 21.8995 140.455 21.8995C140.861 21.8995 141.354 21.9229 141.768 21.9386C141.831 21.618 141.917 21.2115 141.964 20.758C142.675 21.618 143.613 22.3061 145.373 22.3061C148.57 22.3061 150.462 20.0309 150.462 16.6377C150.462 13.7371 148.742 11.4228 145.779 11.4228ZM145.052 20.2264C143.16 20.2264 141.964 18.9207 141.964 16.364V15.0427C142.394 14.5736 143.535 13.5181 145.099 13.5103C146.819 13.4947 147.914 14.902 147.914 16.6846C147.914 19.1083 146.6 20.2264 145.06 20.2264H145.052Z" fill="#545251"/>
<path d="M226.325 11.4228C225.035 11.4228 224.245 11.7668 223.534 12.0639L222.502 12.6581V7.62305H218.874V7.90451C219.906 8.13906 219.992 9.08509 219.992 12.0248V17.5368C219.992 20.4765 219.883 21.446 218.874 21.6571V21.9386C219.562 21.9151 220.313 21.8995 221.001 21.8995C221.407 21.8995 221.9 21.9229 222.314 21.9386C222.377 21.618 222.463 21.2115 222.51 20.758C223.221 21.618 224.159 22.3061 225.918 22.3061C229.116 22.3061 231.008 20.0309 231.008 16.6377C231.008 13.7371 229.288 11.4228 226.325 11.4228ZM225.598 20.2264C223.706 20.2264 222.51 18.9207 222.51 16.364V15.0427C222.94 14.5736 224.081 13.5181 225.645 13.5103C227.365 13.4947 228.459 14.902 228.459 16.6846C228.459 19.1083 227.146 20.2264 225.606 20.2264H225.598Z" fill="#545251"/>
<path d="M157.757 11.4463C154.559 11.4463 152.456 13.5729 152.456 16.9817C152.456 20.0544 154.559 22.3061 158.038 22.3061C159.414 22.3061 160.572 22.0715 161.666 21.579L161.963 19.0927L161.682 19.0302C160.72 19.9293 159.407 20.3202 158.203 20.3202C156.397 20.3202 155.216 19.3116 155.028 17.4039H162.753C162.776 17.2319 162.8 16.9505 162.8 16.8019C162.8 13.3696 160.931 11.4541 157.757 11.4541V11.4463ZM155.099 15.5901C155.443 14.0889 156.428 13.3383 157.694 13.3383C159.024 13.3383 159.923 14.0889 160.228 15.5901H155.099Z" fill="#545251"/>
<path d="M167.733 13.2054C167.694 12.838 167.647 12.3454 167.522 11.7669H164.324V12.0249C165.38 12.2594 165.442 13.3305 165.442 16.1686V17.5447C165.442 20.4219 165.38 21.4304 164.324 21.6884V21.9464C165.161 21.923 165.997 21.923 166.709 21.923C167.459 21.923 168.296 21.923 169.07 21.9464V21.6884C168.038 21.4304 167.952 20.4453 167.952 17.5447V16.9661C167.952 14.8004 168.812 13.7449 170.165 13.7449C170.876 13.7449 171.212 14.042 171.455 14.5424H171.752V11.6887C171.298 11.4932 170.806 11.4307 170.376 11.4307C168.898 11.4307 168.249 12.3141 167.733 13.2133V13.2054Z" fill="#545251"/>
<path d="M175.731 14.3626C175.731 13.784 176.2 13.3149 177.209 13.3149C178.069 13.3149 178.71 13.6589 179.25 14.3469H179.531V11.7903H179.25C179.203 11.8372 179.078 11.8763 178.968 11.8763C178.624 11.8763 178.155 11.4229 176.568 11.4229C174.66 11.4229 173.284 12.666 173.284 14.4486C173.284 16.4032 174.527 16.8097 176.912 18.0138C177.295 18.2092 177.553 18.6158 177.553 19.0849C177.553 19.9215 176.716 20.414 175.794 20.414C174.871 20.414 174.16 20.0466 173.605 19.296H173.347L173.495 21.7823C174.207 22.0168 175.043 22.2983 176.028 22.2983C178.624 22.2983 180 20.8362 180 19.0771C180 15.6213 175.731 16.0044 175.731 14.3548V14.3626Z" fill="#545251"/>
<path d="M194.339 20.1172C191.266 20.1172 189.421 17.756 189.421 14.8163C189.421 11.6185 191.438 9.45283 194.229 9.45283C195.817 9.45283 196.997 9.85939 198.006 10.7429H198.287V7.63114H197.99C197.904 7.71714 197.756 7.80314 197.537 7.80314C196.895 7.80314 195.543 7.26367 194.128 7.26367C192.713 7.26367 191.399 7.41222 190.047 8.24879C187.92 9.56229 186.614 11.9625 186.614 14.8788C186.614 18.788 189.319 22.3063 194.237 22.3063C195.566 22.3063 196.856 22.0483 198.1 21.5949L198.42 18.7177L198.139 18.6551C197.13 19.6402 195.691 20.1172 194.339 20.1172Z" fill="#545251"/>
<path d="M203.69 17.5368V7.62305H200.086V7.90451C201.141 8.16252 201.181 9.1711 201.181 12.0248V17.5368C201.181 20.3671 201.141 21.4226 200.086 21.6806V21.9386C200.813 21.9151 201.65 21.8995 202.486 21.8995C203.26 21.8995 204.05 21.9229 204.785 21.9386V21.6806C203.776 21.3991 203.69 20.414 203.69 17.5368Z" fill="#545251"/>
<path d="M216.105 17.5366V11.7666H212.54V12.0246C213.314 12.1966 213.588 12.8377 213.588 14.7923V16.786C213.588 18.0526 213.463 18.9517 212.814 19.5772C212.431 19.9447 211.891 20.1323 211.438 20.1323C210.148 20.1323 209.507 19.3817 209.507 17.9041V11.7666H205.902V12.0246C206.958 12.2592 206.997 13.3537 206.997 16.1449V18.5686C206.997 21.1018 208.303 22.3215 210.39 22.3215C211.954 22.3215 213.009 21.7429 213.627 20.6483C213.65 20.9298 213.674 21.3364 213.822 21.9384C214.206 21.9149 214.698 21.8993 215.089 21.8993C215.8 21.8993 216.528 21.9227 217.192 21.9384V21.6804C216.184 21.4224 216.098 20.4763 216.098 17.5366H216.105Z" fill="#545251"/>
<path d="M53.7406 10.8052H53.7484C53.9126 10.6566 54.5694 10.039 54.8978 9.68716C55.2418 9.3197 55.5701 8.92096 55.5701 8.37367C55.5701 7.9202 55.1714 7.55273 54.6867 7.55273C54.2723 7.55273 53.9048 7.75601 53.7484 8.18603C53.5999 7.77947 53.2481 7.55273 52.8102 7.55273C52.3177 7.55273 51.9268 7.9202 51.9268 8.37367C51.9268 8.91314 52.2551 9.3197 52.5991 9.68716C52.9275 10.039 53.5764 10.6566 53.7406 10.8052Z" fill="#692F6E"/>
<path d="M22.9052 7.4591C22.4283 7.35746 21.9357 7.30273 21.4354 7.30273C17.534 7.30273 14.3597 10.477 14.3597 14.3784C14.3597 18.2798 17.534 21.4541 21.4354 21.4541C21.9436 21.4541 22.4361 21.3994 22.9052 21.2977C20.8881 23.7918 17.8076 25.3868 14.3519 25.3868C12.8351 25.3868 11.3887 25.0818 10.0752 24.5189C10.3488 25.8246 10.7945 27.0677 11.3965 28.217C12.3504 28.4203 13.3355 28.5298 14.3519 28.5298C22.1547 28.5298 28.5032 22.1812 28.5032 14.3784C28.5032 10.9852 26.0952 8.13931 22.8974 7.4591H22.9052ZM21.4354 18.3111C19.2697 18.3111 17.5027 16.5441 17.5027 14.3784C17.5027 12.2127 19.2697 10.4457 21.4354 10.4457C23.6011 10.4457 25.368 12.2127 25.368 14.3784C25.368 16.5441 23.6011 18.3111 21.4354 18.3111Z" fill="#3C0058"/>
<path d="M12.741 23.0334C13.2648 23.1272 13.8043 23.1898 14.3515 23.1898C15.3601 23.1898 16.3218 23.01 17.2287 22.6972C14.4219 20.985 12.5455 17.9045 12.5455 14.3784C12.5455 9.80463 15.712 5.96578 19.973 4.91812C20.5203 4.7852 21.0754 4.69138 21.654 4.65229C21.8729 4.64447 22.084 4.62883 22.3029 4.62883C23.2255 4.62883 24.1089 4.76175 24.9533 5.00412C24.8908 4.93375 24.8361 4.8712 24.7735 4.80084C23.5617 3.48734 22.1074 2.39276 20.4734 1.61092C20.4421 1.59528 20.4186 1.58747 20.3874 1.57183C17.9715 1.79074 15.6807 2.42404 13.5697 3.40134C11.2164 4.4881 9.08975 5.99706 7.29933 7.84221C7.32278 7.11509 7.42442 6.40362 7.58861 5.71559C8.01862 3.87826 8.92556 2.22076 10.1531 0.860352C8.14372 1.48583 6.32202 2.54913 4.80525 3.94081C1.97498 6.52871 0.200195 10.2503 0.200195 14.3784C0.200195 19.6559 3.10083 24.2609 7.39315 26.6924C6.96313 25.2695 6.70513 23.7762 6.6504 22.2281C4.60979 20.2266 3.3432 17.4511 3.3432 14.3784C3.3432 12.8304 3.66376 11.3605 4.25014 10.0235C4.31269 10.5005 4.39087 10.9696 4.50033 11.4309C4.82089 12.8069 5.3369 14.0969 6.01711 15.2853C6.53312 14.1048 7.18205 12.9867 7.93262 11.9547C8.69101 10.907 9.56667 9.95318 10.5362 9.10097C9.80904 10.7116 9.40248 12.502 9.40248 14.3784C9.40248 17.7012 10.6691 20.7426 12.741 23.0334Z" fill="#692F6E"/>
</g>
<defs>
<clipPath id="clip0_142_5396">
<rect width="230.8" height="27.6694" fill="white" transform="translate(0.200195 0.860352)"/>
</clipPath>
</defs>
</svg>