<?xml version="1.0" encoding="utf-8"?>
<svg xmlns="http://www.w3.org/2000/svg" viewBox="30.5752 0.123 79.1018 77.2803" width="79.1018px" height="77.2803px">
  <defs>
    <clipPath id="clip0_134_3014">
      <rect width="140" height="149" fill="white" transform="translate(0.139648 0.110107)"/>
    </clipPath>
  </defs>
  <g clip-path="url(#clip0_134_3014)">
    <path d="M89.9083 18.0981C79.0088 18.0981 70.1392 26.9693 70.1392 37.8708C70.1392 48.7723 79.0088 57.6435 89.9083 57.6435C91.3176 57.6435 92.6881 57.4883 94.0199 57.2038C88.3826 64.1611 79.7716 68.6226 70.1392 68.6226C65.9113 68.6226 61.8643 67.7562 58.1924 66.2044C58.9423 69.8511 60.2094 73.3168 61.8902 76.5369C64.5537 77.1059 67.3076 77.4033 70.1392 77.4033C91.9382 77.4033 109.677 59.6609 109.677 37.8579C109.677 28.366 102.954 20.4259 94.0199 18.5249C92.6881 18.2404 91.3176 18.0852 89.9083 18.0852V18.0981ZM100.885 37.8708C100.885 43.9229 95.9593 48.8499 89.9083 48.8499C83.8573 48.8499 78.9312 43.9229 78.9312 37.8708C78.9312 31.8188 83.8573 26.8917 89.9083 26.8917C95.9593 26.8917 100.885 31.8188 100.885 37.8708Z" fill="#4B1E4A"/>
    <path d="M50.6934 72.2695C49.491 68.2994 48.7798 64.1224 48.6247 59.7903C42.9357 54.2038 39.3931 46.4447 39.3931 37.858C39.3931 33.5388 40.2981 29.4265 41.9143 25.6892C42.0824 27.0212 42.3151 28.3402 42.6125 29.6204C43.4917 33.4612 44.9398 37.0821 46.8534 40.3926C48.3015 37.0821 50.0987 33.9655 52.2062 31.0817C54.3266 28.1592 56.7832 25.4952 59.4725 23.1158C57.4426 27.616 56.3048 32.6077 56.3048 37.8709C56.3048 47.1689 59.8475 55.6392 65.6398 62.0404C67.1009 62.312 68.6007 62.4672 70.1393 62.4672C72.9579 62.4672 75.6472 61.9628 78.1685 61.0964C70.3332 56.3116 65.0839 47.6991 65.0839 37.8709C65.0839 25.0943 73.9405 14.3739 85.8227 11.4513C87.3484 11.0763 88.9128 10.8176 90.5161 10.7012C91.1108 10.6754 91.7185 10.6366 92.3133 10.6366C94.8862 10.6366 97.3558 11.0245 99.7089 11.6841C99.5408 11.503 99.3728 11.309 99.2047 11.128C95.8172 7.45537 91.7444 4.40347 87.1932 2.218C87.1156 2.1792 87.0251 2.1404 86.9476 2.10161C80.1984 2.72234 73.7983 4.49399 67.9025 7.20966C61.3214 10.2486 55.3868 14.4644 50.396 19.6112C50.4736 17.581 50.7451 15.5895 51.1977 13.6756C52.413 8.54164 54.9343 3.91206 58.3606 0.123047C52.7492 1.86884 47.6679 4.85608 43.4271 8.73561C35.5272 15.9645 30.5752 26.3616 30.5752 37.8839C30.5752 52.6131 38.682 65.4932 50.6546 72.2953L50.6934 72.2695Z" fill="#76356E"/>
  </g>
</svg>